# xmcd
#
# Track frame offsets:
#	150
#	13257
#	25264
#	35826
#	47669
#	61792
#	74538
#	97842
#
# Disc length: 1308 seconds
#
# Revision: 1
# Processed by: cddbd v1.5.2PL0 Copyright (c) Steve Scherf et al.
# Submitted via: audiograbber 1.83.01
#
DISCID=66051a08
DTITLE=PETER SIMPSON - ONE GUITAR
DYEAR=2011
DGENRE=Country
TTITLE0=Mother's Silver Willow
TTITLE1=Snowy Memories
TTITLE2=Most Of All
TTITLE3=Mend Those Hearts
TTITLE4=Stoke's Trail
TTITLE5=Ballad Medley
TTITLE6=The Man Who Steadies The Lead
TTITLE7=Data Track
EXTD=
EXTT0=
EXTT1=
EXTT2=
EXTT3=
EXTT4=
EXTT5=
EXTT6=
EXTT7=
PLAYORDER=
